<?xml version="1.0" encoding="UTF-8" standalone="no"?>
<!-- Created with Inkscape (http://www.inkscape.org/) -->

<svg
   xmlns:dc="http://purl.org/dc/elements/1.1/"
   xmlns:cc="http://creativecommons.org/ns#"
   xmlns:rdf="http://www.w3.org/1999/02/22-rdf-syntax-ns#"
   xmlns:svg="http://www.w3.org/2000/svg"
   xmlns="http://www.w3.org/2000/svg"
   xmlns:sodipodi="http://sodipodi.sourceforge.net/DTD/sodipodi-0.dtd"
   xmlns:inkscape="http://www.inkscape.org/namespaces/inkscape"
   width="744.09448819"
   height="1052.3622047"
   id="svg2"
   version="1.1"
   inkscape:version="0.48.2 r9819"
   sodipodi:docname="wyasis.svg"
   inkscape:export-filename="/home/misto/repos/Write-Yourself-a-Scheme-in-Scala/layout/title.png"
   inkscape:export-xdpi="200"
   inkscape:export-ydpi="200">
  <defs
     id="defs4">
    <filter
       inkscape:collect="always"
       id="filter3836"
       x="-0.0090287444"
       width="1.0180575"
       y="-0.12062367"
       height="1.2412473">
      <feGaussianBlur
         inkscape:collect="always"
         stdDeviation="1.182112"
         id="feGaussianBlur3838" />
    </filter>
    <filter
       inkscape:collect="always"
       id="filter3910"
       x="-0.013534492"
       width="1.027069"
       y="-0.10584212"
       height="1.2116842">
      <feGaussianBlur
         inkscape:collect="always"
         stdDeviation="1.8861387"
         id="feGaussianBlur3912" />
    </filter>
    <filter
       inkscape:collect="always"
       id="filter3967">
      <feGaussianBlur
         inkscape:collect="always"
         stdDeviation="2.1106761"
         id="feGaussianBlur3969" />
    </filter>
    <filter
       inkscape:collect="always"
       id="filter4128"
       x="-0.013413361"
       width="1.0268267"
       y="-0.11388477"
       height="1.2277695">
      <feGaussianBlur
         inkscape:collect="always"
         stdDeviation="1.7705522"
         id="feGaussianBlur4130" />
    </filter>
  </defs>
  <sodipodi:namedview
     id="base"
     pagecolor="#ffffff"
     bordercolor="#666666"
     borderopacity="1.0"
     inkscape:pageopacity="0"
     inkscape:pageshadow="2"
     inkscape:zoom="2"
     inkscape:cx="372.61917"
     inkscape:cy="798.86384"
     inkscape:document-units="px"
     inkscape:current-layer="layer1"
     showgrid="false"
     inkscape:window-width="1432"
     inkscape:window-height="838"
     inkscape:window-x="0"
     inkscape:window-y="39"
     inkscape:window-maximized="0" />
  <metadata
     id="metadata7">
    <rdf:RDF>
      <cc:Work
         rdf:about="">
        <dc:format>image/svg+xml</dc:format>
        <dc:type
           rdf:resource="http://purl.org/dc/dcmitype/StillImage" />
        <dc:title></dc:title>
      </cc:Work>
    </rdf:RDF>
  </metadata>
  <g
     inkscape:label="Layer 1"
     inkscape:groupmode="layer"
     id="layer1">
    <g
       id="g3872"
       style="fill:#5d5d5d;fill-opacity:1;filter:url(#filter3910)">
      <path
         style="fill:#5d5d5d;fill-opacity:1;fill-rule:nonzero;stroke:none"
         d="m 242.56848,246.25848 c -9.93745,0 -18.11088,4.70117 -19.09375,10.75 -8.26994,1.3351 -14.40625,6.00789 -14.40625,11.59375 0,5.17151 5.2542,9.56514 12.59375,11.25 2.03974,5.05027 9.00193,8.78125 17.3125,8.78125 8.6053,0 15.81879,-3.98861 17.5625,-9.3125 0.90487,0.19667 1.82851,0.35187 2.78125,0.46875 10.52107,1.2907 19.69331,-2.98683 20.5,-9.5625 0.80669,-6.57567 -7.07268,-12.9593 -17.59375,-14.25 -0.28675,-0.0352 -0.55913,-0.0668 -0.84375,-0.0937 -1.74919,-5.4987 -9.50065,-9.625 -18.8125,-9.625 z"
         id="path3874"
         inkscape:connector-curvature="0" />
      <path
         sodipodi:type="arc"
         style="fill:#5d5d5d;fill-opacity:1;fill-rule:nonzero;stroke:none"
         id="path3876"
         sodipodi:cx="301.60715"
         sodipodi:cy="310.57648"
         sodipodi:rx="20.892857"
         sodipodi:ry="11.071428"
         d="m 322.5,310.57648 a 20.892857,11.071428 0 1 1 -41.78571,0 20.892857,11.071428 0 1 1 41.78571,0 z"
         transform="translate(10,-34)" />
      <path
         sodipodi:type="arc"
         style="fill:#5d5d5d;fill-opacity:1;fill-rule:nonzero;stroke:none"
         id="path3878"
         sodipodi:cx="288.57144"
         sodipodi:cy="265.57648"
         sodipodi:rx="18.571428"
         sodipodi:ry="11.785714"
         d="m 307.14287,265.57648 a 18.571428,11.785714 0 1 1 -37.14286,0 18.571428,11.785714 0 1 1 37.14286,0 z"
         transform="translate(12,0)" />
      <path
         sodipodi:type="arc"
         style="fill:#5d5d5d;fill-opacity:1;fill-rule:nonzero;stroke:none"
         id="path3880"
         sodipodi:cx="323.75"
         sodipodi:cy="277.00504"
         sodipodi:rx="14.821428"
         sodipodi:ry="11.071428"
         d="m 338.57143,277.00504 a 14.821428,11.071428 0 1 1 -29.64286,0 14.821428,11.071428 0 1 1 29.64286,0 z"
         transform="translate(12,0)" />
      <path
         sodipodi:type="arc"
         style="fill:#5d5d5d;fill-opacity:1;fill-rule:nonzero;stroke:none"
         id="path3882"
         sodipodi:cx="314.64285"
         sodipodi:cy="263.25504"
         sodipodi:rx="19.285715"
         sodipodi:ry="11.607142"
         d="m 333.92857,263.25504 a 19.285715,11.607142 0 1 1 -38.57143,0 19.285715,11.607142 0 1 1 38.57143,0 z"
         transform="translate(12,0)" />
      <path
         sodipodi:type="arc"
         style="fill:#5d5d5d;fill-opacity:1;fill-rule:nonzero;stroke:none"
         id="path3884"
         sodipodi:cx="339.46429"
         sodipodi:cy="268.07648"
         sodipodi:rx="15.892858"
         sodipodi:ry="12.857142"
         d="m 355.35715,268.07648 a 15.892858,12.857142 0 1 1 -31.78571,0 15.892858,12.857142 0 1 1 31.78571,0 z"
         transform="translate(14,-2)" />
      <path
         sodipodi:type="arc"
         style="fill:#5d5d5d;fill-opacity:1;fill-rule:nonzero;stroke:none"
         id="path3886"
         sodipodi:cx="342.14285"
         sodipodi:cy="277.18362"
         sodipodi:rx="9.6428576"
         sodipodi:ry="11.25"
         d="m 351.78571,277.18362 a 9.6428576,11.25 0 1 1 -19.28571,0 9.6428576,11.25 0 1 1 19.28571,0 z"
         transform="translate(12,0)" />
      <path
         sodipodi:type="arc"
         style="fill:#5d5d5d;fill-opacity:1;fill-rule:nonzero;stroke:none"
         id="path3888"
         sodipodi:cx="373.92856"
         sodipodi:cy="269.86218"
         sodipodi:rx="15.357142"
         sodipodi:ry="11.071428"
         d="m 389.2857,269.86218 a 15.357142,11.071428 0 1 1 -30.71428,0 15.357142,11.071428 0 1 1 30.71428,0 z"
         transform="translate(12,0)" />
      <path
         d="m 389.2857,269.86218 a 15.357142,11.071428 0 1 1 -30.71428,0 15.357142,11.071428 0 1 1 30.71428,0 z"
         sodipodi:ry="11.071428"
         sodipodi:rx="15.357142"
         sodipodi:cy="269.86218"
         sodipodi:cx="373.92856"
         id="path3890"
         style="fill:#5d5d5d;fill-opacity:1;fill-rule:nonzero;stroke:none"
         sodipodi:type="arc"
         transform="matrix(0.73080513,0,0,1,117.09702,6.285714)" />
      <path
         transform="matrix(0.97253699,0,0,1,34.418881,-9.714286)"
         sodipodi:type="arc"
         style="fill:#5d5d5d;fill-opacity:1;fill-rule:nonzero;stroke:none"
         id="path3892"
         sodipodi:cx="373.92856"
         sodipodi:cy="269.86218"
         sodipodi:rx="15.357142"
         sodipodi:ry="11.071428"
         d="m 389.2857,269.86218 a 15.357142,11.071428 0 1 1 -30.71428,0 15.357142,11.071428 0 1 1 30.71428,0 z" />
      <path
         sodipodi:type="arc"
         style="fill:#5d5d5d;fill-opacity:1;fill-rule:nonzero;stroke:none"
         id="path3894"
         sodipodi:cx="383.03571"
         sodipodi:cy="322.36218"
         sodipodi:rx="23.75"
         sodipodi:ry="15.714286"
         d="m 406.78571,322.36218 a 23.75,15.714286 0 1 1 -47.5,0 23.75,15.714286 0 1 1 47.5,0 z"
         transform="translate(28,-50)" />
      <path
         transform="translate(54,-54)"
         d="m 406.78571,322.36218 a 23.75,15.714286 0 1 1 -47.5,0 23.75,15.714286 0 1 1 47.5,0 z"
         sodipodi:ry="15.714286"
         sodipodi:rx="23.75"
         sodipodi:cy="322.36218"
         sodipodi:cx="383.03571"
         id="path3896"
         style="fill:#5d5d5d;fill-opacity:1;fill-rule:nonzero;stroke:none"
         sodipodi:type="arc" />
      <path
         sodipodi:type="arc"
         style="fill:#5d5d5d;fill-opacity:1;fill-rule:nonzero;stroke:none"
         id="path3898"
         sodipodi:cx="510.5311"
         sodipodi:cy="272.77695"
         sodipodi:rx="25.809397"
         sodipodi:ry="14.142136"
         d="m 536.34049,272.77695 a 25.809397,14.142136 0 1 1 -51.61879,0 25.809397,14.142136 0 1 1 51.61879,0 z"
         transform="matrix(0.9544385,-0.29840766,0.29840766,0.9544385,-50.138172,165.48161)" />
      <path
         sodipodi:type="arc"
         style="fill:#5d5d5d;fill-opacity:1;fill-rule:nonzero;stroke:none"
         id="path3900"
         sodipodi:cx="505.40457"
         sodipodi:cy="262.87747"
         sodipodi:rx="33.057243"
         sodipodi:ry="14.142136"
         d="m 538.46181,262.87747 a 33.057243,14.142136 0 1 1 -66.11448,0 33.057243,14.142136 0 1 1 66.11448,0 z"
         transform="matrix(0.97675727,0.21434842,-0.21434842,0.97675727,70.094355,-101.51558)" />
      <path
         sodipodi:type="arc"
         style="fill:#5d5d5d;fill-opacity:1;fill-rule:nonzero;stroke:none"
         id="path3902"
         sodipodi:cx="517.77893"
         sodipodi:cy="254.92252"
         sodipodi:rx="16.793787"
         sodipodi:ry="9.0156116"
         d="m 534.57272,254.92252 a 16.793787,9.0156116 0 1 1 -33.58758,0 16.793787,9.0156116 0 1 1 33.58758,0 z"
         transform="translate(4,2.7071068)" />
      <path
         sodipodi:type="arc"
         style="fill:#5d5d5d;fill-opacity:1;fill-rule:nonzero;stroke:none"
         id="path3904"
         sodipodi:cx="480.12552"
         sodipodi:cy="272.60019"
         sodipodi:rx="24.04163"
         sodipodi:ry="14.318913"
         d="m 504.16715,272.60019 a 24.04163,14.318913 0 1 1 -48.08326,0 24.04163,14.318913 0 1 1 48.08326,0 z"
         transform="translate(6,-1.2928932)" />
    </g>
    <path
       style="fill:#ffffff;fill-opacity:1;fill-rule:nonzero;stroke:none"
       d="m 223.47473,257.00848 c -8.26994,1.3351 -14.40625,6.00789 -14.40625,11.59375 0,5.17151 5.2542,9.56514 12.59375,11.25 2.03974,5.05027 9.00193,8.78125 17.3125,8.78125 8.6053,0 15.81879,-3.98861 17.5625,-9.3125 0.90487,0.19667 1.82851,0.35187 2.78125,0.46875 10.52107,1.2907 19.69331,-2.98683 20.5,-9.5625 -2.93497,-15.05553 -24.83269,-16.64043 -29.11827,-16.54408 -7.08616,-9.06224 -26.03615,-4.55796 -27.22548,3.32533 z"
       id="path2987"
       inkscape:connector-curvature="0"
       sodipodi:nodetypes="cscscsccc" />
    <path
       sodipodi:type="arc"
       style="fill:#ffffff;fill-opacity:1;fill-rule:nonzero;stroke:none"
       id="path3768"
       sodipodi:cx="301.60715"
       sodipodi:cy="310.57648"
       sodipodi:rx="20.892857"
       sodipodi:ry="11.071428"
       d="m 322.5,310.57648 a 20.892857,11.071428 0 1 1 -41.78571,0 20.892857,11.071428 0 1 1 41.78571,0 z"
       transform="translate(10,-34)" />
    <path
       sodipodi:type="arc"
       style="fill:#ffffff;fill-opacity:1;fill-rule:nonzero;stroke:none"
       id="path3770"
       sodipodi:cx="288.57144"
       sodipodi:cy="265.57648"
       sodipodi:rx="18.571428"
       sodipodi:ry="11.785714"
       d="m 307.14287,265.57648 a 18.571428,11.785714 0 1 1 -37.14286,0 18.571428,11.785714 0 1 1 37.14286,0 z"
       transform="translate(12,0)" />
    <path
       sodipodi:type="arc"
       style="fill:#ffffff;fill-opacity:1;fill-rule:nonzero;stroke:none"
       id="path3772"
       sodipodi:cx="323.75"
       sodipodi:cy="277.00504"
       sodipodi:rx="14.821428"
       sodipodi:ry="11.071428"
       d="m 338.57143,277.00504 a 14.821428,11.071428 0 1 1 -29.64286,0 14.821428,11.071428 0 1 1 29.64286,0 z"
       transform="translate(12,0)" />
    <path
       sodipodi:type="arc"
       style="fill:#ffffff;fill-opacity:1;fill-rule:nonzero;stroke:none"
       id="path3774"
       sodipodi:cx="314.64285"
       sodipodi:cy="263.25504"
       sodipodi:rx="19.285715"
       sodipodi:ry="11.607142"
       d="m 333.92857,263.25504 a 19.285715,11.607142 0 1 1 -38.57143,0 19.285715,11.607142 0 1 1 38.57143,0 z"
       transform="translate(12,0)" />
    <path
       sodipodi:type="arc"
       style="fill:#ffffff;fill-opacity:1;fill-rule:nonzero;stroke:none"
       id="path3776"
       sodipodi:cx="339.46429"
       sodipodi:cy="268.07648"
       sodipodi:rx="15.892858"
       sodipodi:ry="12.857142"
       d="m 355.35715,268.07648 a 15.892858,12.857142 0 1 1 -31.78571,0 15.892858,12.857142 0 1 1 31.78571,0 z"
       transform="translate(14,-2)" />
    <path
       sodipodi:type="arc"
       style="fill:#ffffff;fill-opacity:1;fill-rule:nonzero;stroke:none"
       id="path3778"
       sodipodi:cx="342.14285"
       sodipodi:cy="277.18362"
       sodipodi:rx="9.6428576"
       sodipodi:ry="11.25"
       d="m 351.78571,277.18362 a 9.6428576,11.25 0 1 1 -19.28571,0 9.6428576,11.25 0 1 1 19.28571,0 z"
       transform="translate(12,0)" />
    <path
       sodipodi:type="arc"
       style="fill:#ffffff;fill-opacity:1;fill-rule:nonzero;stroke:none"
       id="path3780"
       sodipodi:cx="373.92856"
       sodipodi:cy="269.86218"
       sodipodi:rx="15.357142"
       sodipodi:ry="11.071428"
       d="m 389.2857,269.86218 a 15.357142,11.071428 0 1 1 -30.71428,0 15.357142,11.071428 0 1 1 30.71428,0 z"
       transform="translate(12,0)" />
    <path
       d="m 389.2857,269.86218 a 15.357142,11.071428 0 1 1 -30.71428,0 15.357142,11.071428 0 1 1 30.71428,0 z"
       sodipodi:ry="11.071428"
       sodipodi:rx="15.357142"
       sodipodi:cy="269.86218"
       sodipodi:cx="373.92856"
       id="path3782"
       style="fill:#ffffff;fill-opacity:1;fill-rule:nonzero;stroke:none"
       sodipodi:type="arc"
       transform="matrix(0.73080513,0,0,1,117.09702,6.285714)" />
    <path
       style="fill:#666666;fill-opacity:1;fill-rule:nonzero;stroke:none;filter:url(#filter4128)"
       d="m 481.5,171.125 c -8.1528,0 -14.88258,4.55734 -16.21875,10.5625 -4.43014,0.8897 -7.78125,4.89111 -7.78125,9.71875 0,5.48038 4.30926,9.9375 9.625,9.9375 1.46578,0 2.85027,-0.36454 4.09375,-0.96875 2.82105,1.39944 6.39039,2.25 10.28125,2.25 5.02724,0 9.50487,-1.42222 12.53125,-3.625 1.82893,1.61422 4.21257,2.625 6.84375,2.625 2.29474,0 4.40694,-0.76993 6.125,-2.03125 1.61948,2.65897 4.03136,4.47689 6.96875,4.90625 6.56453,0.95953 13.24671,-5.36617 14.9375,-14.125 1.69079,-8.75883 -2.24797,-16.63422 -8.8125,-17.59375 -3.76093,-0.54973 -7.55727,1.30553 -10.4375,4.625 -1.92886,-0.66191 -4.09069,-1.03125 -6.40625,-1.03125 -2.66407,0 -5.15427,0.48451 -7.28125,1.34375 C 493.16307,173.77468 487.73576,171.125 481.5,171.125 z m -133.09375,2.09375 c -6.18608,0 -11.53025,2.85726 -14.15625,7.03125 -3.39064,-1.28077 -7.79978,-2.0625 -12.65625,-2.0625 -3.75469,0 -7.25517,0.47892 -10.21875,1.28125 -3.25879,-3.39744 -9.14937,-5.6875 -15.875,-5.6875 -10.25672,0 -18.5625,5.27218 -18.5625,11.78125 0,3.7327 2.73309,7.05932 7,9.21875 -0.17753,0.58076 -0.28125,1.17393 -0.28125,1.78125 0,6.11458 9.33619,11.09375 20.875,11.09375 6.69732,0 12.64528,-1.68434 16.46875,-4.28125 2.59928,1.6814 5.97917,2.6875 9.6875,2.6875 3.95528,0 7.52972,-1.14521 10.1875,-3.03125 1.69515,3.22684 4.73707,5.40625 8.21875,5.40625 5.3256,0 9.625,-5.0368 9.625,-11.25 0,-0.44271 -0.0199,-0.88313 -0.0625,-1.3125 3.43797,-2.3584 5.625,-5.88028 5.625,-9.8125 0,-7.1008 -7.09762,-12.84375 -15.875,-12.84375 z m -115.9375,0.21875 c -11.03231,0 -19.96875,6.01754 -19.96875,13.4375 0,7.41996 8.93644,13.4375 19.96875,13.4375 1.51436,0 2.98834,-0.129 4.40625,-0.34375 3.82264,2.347 9.68892,3.875 16.28125,3.875 11.52047,0 20.84375,-4.5874 20.84375,-10.25 0,-1.47162 -0.6141,-2.89121 -1.75,-4.15625 1.55168,-1.43601 2.46875,-3.09321 2.46875,-4.875 0,-5.36971 -8.07288,-9.71875 -18.03125,-9.71875 -4.12821,0 -7.92937,0.74156 -10.96875,2 -3.52923,-2.113 -8.15326,-3.40625 -13.25,-3.40625 z M 410.25,175.375 c -10.25263,0 -18.85856,3.18496 -21.4375,7.53125 -0.51266,-0.0359 -1.0361,-0.0312 -1.5625,-0.0312 -8.42234,0 -15.25,4.70101 -15.25,10.5 0,5.79899 6.82766,10.5 15.25,10.5 4.19361,0 7.99307,-1.17632 10.75,-3.0625 5.96972,1.86767 14.67208,3.0625 24.40625,3.0625 17.99257,0 32.59375,-4.03494 32.59375,-9 0,-1.48845 -1.33574,-2.88863 -3.65625,-4.125 0.55166,-1.3671 0.80853,-2.79995 0.6875,-4.25 -0.46912,-5.62054 -6.31811,-9.18911 -13.0625,-7.96875 -2.99931,0.54271 -5.65537,1.9328 -7.65625,3.8125 -2.96771,-4.0535 -11.26243,-6.9688 -21.0625,-6.9688 z"
       id="path4066"
       inkscape:connector-curvature="0"
       inkscape:export-filename="/home/misto/repos/Write-Yourself-a-Scheme-in-Scala/layout/title.png"
       inkscape:export-xdpi="200"
       inkscape:export-ydpi="200" />
    <path
       transform="matrix(0.97253699,0,0,1,34.418881,-9.714286)"
       sodipodi:type="arc"
       style="fill:#ffffff;fill-opacity:1;fill-rule:nonzero;stroke:none"
       id="path3784"
       sodipodi:cx="373.92856"
       sodipodi:cy="269.86218"
       sodipodi:rx="15.357142"
       sodipodi:ry="11.071428"
       d="m 389.2857,269.86218 a 15.357142,11.071428 0 1 1 -30.71428,0 15.357142,11.071428 0 1 1 30.71428,0 z" />
    <path
       sodipodi:type="arc"
       style="fill:#ffffff;fill-opacity:1;fill-rule:nonzero;stroke:none"
       id="path3786"
       sodipodi:cx="383.03571"
       sodipodi:cy="322.36218"
       sodipodi:rx="23.75"
       sodipodi:ry="15.714286"
       d="m 406.78571,322.36218 a 23.75,15.714286 0 1 1 -47.5,0 23.75,15.714286 0 1 1 47.5,0 z"
       transform="translate(28,-50)" />
    <path
       transform="translate(54,-54)"
       d="m 406.78571,322.36218 a 23.75,15.714286 0 1 1 -47.5,0 23.75,15.714286 0 1 1 47.5,0 z"
       sodipodi:ry="15.714286"
       sodipodi:rx="23.75"
       sodipodi:cy="322.36218"
       sodipodi:cx="383.03571"
       id="path3788"
       style="fill:#ffffff;fill-opacity:1;fill-rule:nonzero;stroke:none"
       sodipodi:type="arc" />
    <path
       sodipodi:type="arc"
       style="fill:#ffffff;fill-opacity:1;fill-rule:nonzero;stroke:none"
       id="path3813"
       sodipodi:cx="510.5311"
       sodipodi:cy="272.77695"
       sodipodi:rx="25.809397"
       sodipodi:ry="14.142136"
       d="m 536.34049,272.77695 a 25.809397,14.142136 0 1 1 -51.61879,0 25.809397,14.142136 0 1 1 51.61879,0 z"
       transform="matrix(0.9544385,-0.29840766,0.29840766,0.9544385,-50.138172,165.48161)" />
    <path
       sodipodi:type="arc"
       style="fill:#ffffff;fill-opacity:1;fill-rule:nonzero;stroke:none"
       id="path3809"
       sodipodi:cx="505.40457"
       sodipodi:cy="262.87747"
       sodipodi:rx="33.057243"
       sodipodi:ry="14.142136"
       d="m 538.46181,262.87747 a 33.057243,14.142136 0 1 1 -66.11448,0 33.057243,14.142136 0 1 1 66.11448,0 z"
       transform="matrix(0.97675727,0.21434842,-0.21434842,0.97675727,70.094355,-101.51558)" />
    <path
       sodipodi:type="arc"
       style="fill:#ffffff;fill-opacity:1;fill-rule:nonzero;stroke:none"
       id="path3815"
       sodipodi:cx="517.77893"
       sodipodi:cy="254.92252"
       sodipodi:rx="16.793787"
       sodipodi:ry="9.0156116"
       d="m 534.57272,254.92252 a 16.793787,9.0156116 0 1 1 -33.58758,0 16.793787,9.0156116 0 1 1 33.58758,0 z"
       transform="translate(4,2.7071068)" />
    <path
       sodipodi:type="arc"
       style="fill:#ffffff;fill-opacity:1;fill-rule:nonzero;stroke:none"
       id="path3811"
       sodipodi:cx="480.12552"
       sodipodi:cy="272.60019"
       sodipodi:rx="24.04163"
       sodipodi:ry="14.318913"
       d="m 504.16715,272.60019 a 24.04163,14.318913 0 1 1 -48.08326,0 24.04163,14.318913 0 1 1 48.08326,0 z"
       transform="translate(6,-1.2928932)" />
    <text
       xml:space="preserve"
       style="font-size:30px;font-style:italic;font-variant:normal;font-weight:bold;font-stretch:normal;line-height:125%;letter-spacing:0px;word-spacing:0px;fill:#000000;fill-opacity:1;stroke:none;font-family:Miama;-inkscape-font-specification:Miama Bold Italic"
       x="216.60229"
       y="276.59375"
       id="text3764"
       sodipodi:linespacing="125%"><tspan
         sodipodi:role="line"
         id="tspan3766"
         x="216.60229"
         y="276.59375"
         style="font-size:30px;font-style:italic;font-variant:normal;font-weight:bold;font-stretch:normal;font-family:Muriel;-inkscape-font-specification:Muriel Bold Italic"
         dy="0 0 0 0 0 0 0 0 0 0 0 0 0 0 0 0 0"
         dx="0 0 0 0 0 0 0 0 0 0 0 0 0 0 0 0 9.6428566 0 0 0 0 0 0 0 0 4.24264">Write  Yourself a Scheme in Scala</tspan></text>
    <path
       id="path3961"
       d="m 369.5,382.625 c -4.57565,0 -8.41017,1.99238 -9.3125,4.65625 -1.22823,0.34958 -2.40286,0.89035 -3.46875,1.59375 -4.00445,2.29298 -5.06815,5.28797 -5.21875,5.53125 l -0.0312,0.0312 c -0.009,-0.003 -0.022,0.003 -0.0312,0 -0.88281,-0.36432 -1.80751,-0.62702 -2.75,-0.78125 -0.13874,-0.0191 -0.36271,-0.0446 -0.5,-0.0625 -0.0105,-0.001 -0.0208,10e-4 -0.0312,0 -0.17661,-0.0246 -0.35375,-0.0455 -0.53125,-0.0625 -0.29804,-0.0201 -0.60754,-0.0326 -0.90625,-0.0312 -1.6942,-0.83888 -4.27685,-1.375 -7.21875,-1.375 -4.47005,0 -8.19997,1.22315 -9.0625,2.875 -0.28935,-0.14524 -0.59537,-0.26907 -0.90625,-0.40625 -0.15786,-0.26644 -0.23617,-0.67632 -0.40625,-0.90625 -0.36861,-0.49831 -0.65762,-0.69751 -1,-1.0625 -0.0572,-0.0609 -0.10003,-0.12989 -0.15625,-0.1875 -0.0414,-0.042 -0.083,-0.0836 -0.125,-0.125 -0.0302,-0.0301 -0.0639,-0.0646 -0.0937,-0.0937 -0.0311,-0.0314 -0.0623,-0.0627 -0.0937,-0.0937 -0.47398,-0.47777 -0.98661,-0.91717 -1.53125,-1.3125 -0.0122,-0.008 -0.0192,-0.0236 -0.0312,-0.0312 -0.24388,-0.17561 -0.4941,-0.34242 -0.75,-0.5 -1.96753,-1.21929 -4.27905,-1.87659 -6.59375,-1.875 1.51666,0 1.17257,-0.18033 -1.4375,0.0312 -0.5041,0.0409 -1.22712,0.4468 -1.84375,0.625 -1.48181,-0.69497 -2.26395,-0.75822 -2.15625,-0.6875 0.009,0.006 -0.1469,-0.0378 -0.125,-0.0312 -0.10375,-0.0326 -0.20793,-0.0639 -0.3125,-0.0937 -0.97603,-0.27722 -1.98592,-0.43502 -3,-0.46875 -3.51389,-0.25128 -6.75444,0.63541 -9,1.75 -2.8705,1.42477 -4.72692,3.08652 -6.25,4.65625 -0.009,0.009 -0.022,0.022 -0.0312,0.0312 -0.009,0.01 -0.0218,0.0215 -0.0312,0.0312 -2.59428,2.64874 -6.28143,6.94078 -6.65625,13.875 -0.006,0.2187 -0.006,0.43755 0,0.65625 0,4.72758 1.93429,8.22464 4.5625,10.78125 0.0248,1.96074 0.28641,3.84951 0.84375,5.25 0.79113,1.98797 1.63428,3.11598 2.3125,3.9375 0.0173,0.021 0.0455,0.0421 0.0625,0.0625 0.12986,0.15601 0.29691,0.40368 0.40625,0.53125 l 0.0312,-0.0312 c 5.77653,7.07474 13.48673,6.82722 19.375,4.5625 0.0628,-0.0307 0.12526,-0.062 0.1875,-0.0937 0.97332,-0.3929 1.84459,-0.83969 2.65625,-1.34375 2.63537,1.19457 6.3221,1.9375 10.40625,1.9375 5.68948,0 10.59427,-1.46564 12.96875,-3.5625 2.29529,1.3809 6.37254,2.3125 11.03125,2.3125 2.30736,0 4.46525,-0.22968 6.34375,-0.625 1.13009,0.69475 2.2512,1.14164 3.1875,1.40625 2.3133,0.65376 4.08508,0.61912 5.875,0.34375 0.20908,-0.026 0.4175,-0.0573 0.625,-0.0937 4.14771,-0.85815 7.2231,-3.77813 8.5,-5.5 1.02152,-1.3775 1.41458,-2.21604 1.46875,-2.375 0.0175,-0.0309 0.0294,-0.0356 0.0312,-0.0312 0.10119,-0.17292 0.18849,-0.35367 0.28125,-0.53125 1.74218,-3.48437 2.28607,-6.28231 2.625,-8.65625 0.63763,-1.43385 1.15625,-2.9997 1.15625,-4.8125 -8.4e-4,-0.88165 -0.0953,-1.76318 -0.28125,-2.625 -0.10885,-0.50798 -0.31365,-1.16012 -0.5625,-1.84375 0.43041,-1.30873 0.89328,-2.78953 1.375,-4 0.0319,-0.0726 0.0632,-0.14554 0.0937,-0.21875 0.68632,-1.83019 1.43154,-5.11506 0.0625,-8.90625 -0.83068,-2.30034 -2.33768,-3.99715 -3.90625,-5.3125 -0.20874,-0.18689 -0.43541,-0.35883 -0.65625,-0.53125 0.009,-0.10527 0.0312,-0.20583 0.0312,-0.3125 0,-3.24467 -4.25329,-5.875 -9.5,-5.875 z m -141.84375,3.65625 c -2.95911,0.0578 -5.61276,0.8919 -7.5,1.8125 -2.8758,1.40283 -4.66853,2.99792 -6.0625,4.28125 -0.30665,0.28713 -0.59881,0.58972 -0.875,0.90625 -1.16451,1.3164 -6.1387,5.65639 -5.875,13.84375 l -0.0625,0 c 0.003,0.13352 0.0257,0.24351 0.0312,0.375 9.2e-4,0.0217 -9.9e-4,0.0408 0,0.0625 0.33657,7.35804 4.81319,11.4248 9.65625,13.40625 0.33245,0.69076 0.59329,1.36008 1.125,2.125 3.95796,5.13287 15.45727,6.50327 23.125,6.25 2.83902,1.81835 7.4471,3.03125 12.65625,3.03125 5.27952,0 9.95269,-1.23353 12.78125,-3.09375 4.75677,-0.67629 7.10165,-3.19295 8.0625,-4.09375 0.80936,-0.7661 1.51561,-1.641 2.09375,-2.59375 -0.18088,0.29392 -0.28011,0.48326 -0.3125,0.5625 0.10303,-0.10089 0.5726,-0.7781 1.21875,-2.03125 0.53401,-1.03566 1.296,-2.67982 1.46875,-5.28125 0.0199,-0.29954 -0.11634,-0.67772 -0.125,-1 1.06985,-2.89384 1.34375,-5.61803 1.34375,-7.21875 -0.005,-1.69296 -0.35791,-3.3842 -1.03125,-4.9375 0,0 -0.2564,-0.4663 -0.34375,-0.65625 -0.17767,-0.3954 -0.37598,-0.78144 -0.59375,-1.15625 -0.51316,-0.83727 -0.80435,-2.42809 -4.21875,-4.3125 -0.47934,-0.34904 -1.72674,-1.32009 -4.53125,-2.09375 -0.10488,-0.0289 -0.26391,-0.006 -0.375,-0.0312 -0.67127,-0.72749 -1.32127,-1.5253 -2.09375,-2.03125 -2.31768,-1.51801 -4.43507,-1.90603 -5.84375,-2.03125 -2.53212,-0.22508 -3.35772,0.0631 -3.78125,0.1875 -1.27016,0.20455 -2.5083,0.60668 -3.65625,1.1875 -2.18132,-2.44221 -6.16136,-5.21875 -10,-5.21875 -1.64704,0.002 -3.29309,0.33304 -4.8125,0.96875 -0.43844,0.18268 -1.05015,0.67863 -1.59375,1 -0.26946,-0.0313 -0.59303,-0.1875 -0.84375,-0.1875 -0.27634,0 -0.58868,0.10285 -0.875,0.125 -0.13381,-0.0859 -0.26926,-0.16926 -0.40625,-0.25 -0.0415,-0.0315 -0.0831,-0.0627 -0.125,-0.0937 -0.14183,-0.0761 -0.1497,-0.0594 -0.28125,-0.125 -0.54299,-0.29113 -1.10754,-0.54204 -1.6875,-0.75 -0.2675,-0.10303 -0.53855,-0.19685 -0.8125,-0.28125 -0.0102,-0.003 -0.0212,0.003 -0.0312,0 -0.98343,-0.30087 -2.00412,-0.47975 -3.03125,-0.53125 -0.16405,-0.0145 -0.33721,-0.0843 -0.5,-0.0937 -0.43407,-0.0251 -0.85852,-0.0395 -1.28125,-0.0312 z m 328.375,0.46875 c -0.53519,-0.008 -1.11095,0.0309 -1.71875,0.0937 -0.25087,0.0237 -0.50102,0.055 -0.75,0.0937 -0.23027,0.0352 -0.45956,0.0769 -0.6875,0.125 -1.56655,0.31514 -3.07138,0.93415 -4.40625,1.8125 -0.0209,0.0103 -0.0417,0.0208 -0.0625,0.0312 -1.66487,0.96676 -2.68768,1.9009 -3.375,2.71875 -0.86935,-0.69106 -2.00335,-1.125 -3.28125,-1.125 -0.90458,0 -1.7427,0.19374 -2.46875,0.5625 -0.81549,-0.74939 -1.666,-1.37779 -2.46875,-1.84375 -1.5332,-0.88996 -2.91635,-1.36949 -4.25,-1.71875 -1.57011,-0.54178 -3.24895,-0.76633 -4.90625,-0.65625 -0.1877,0.006 -0.37527,0.0167 -0.5625,0.0312 -2.01254,0.16362 -3.98285,0.824 -5.6875,1.90625 -0.0946,0.0612 -0.18835,0.12374 -0.28125,0.1875 -1.12135,0.63205 -2.20359,1.35087 -3.09375,2.15625 -0.1819,0.16145 -0.35908,0.32821 -0.53125,0.5 -1.19455,1.21293 -2.47357,2.81117 -3.65625,4.625 -0.62838,-0.35828 -1.28793,-0.66188 -1.96875,-0.90625 -0.14158,-0.0515 -0.26578,-0.0165 -0.40625,-0.0625 -1.57262,-0.93483 -3.36728,-1.50724 -5.1875,-1.6875 -1.32979,-0.68211 -2.94876,-1.09375 -4.71875,-1.09375 -1.19627,0 -2.32283,0.17027 -3.34375,0.5 -0.83829,0.18496 -1.73976,0.48214 -2.71875,0.96875 -0.98268,0.43101 -1.90949,0.9892 -2.75,1.65625 -0.17012,0.13109 -0.33686,0.26657 -0.5,0.40625 -1.5449,1.29793 -2.76816,2.97586 -3.53125,4.84375 -0.39741,0.92987 -0.68143,1.90813 -0.84375,2.90625 -0.0257,0.14086 -0.1418,0.49257 -0.15625,0.59375 -0.037,0.21787 -0.0684,0.43672 -0.0937,0.65625 -9.6e-4,0.0106 9.3e-4,0.0208 0,0.0312 -0.29053,0.76875 -0.62085,1.57893 -1.125,3.125 -0.0213,0.0623 -0.0422,0.12484 -0.0625,0.1875 -0.81449,2.6471 -2.34598,8.22719 1.1875,14.21875 0.84175,1.40797 1.96383,2.64759 3.28125,3.625 0.0995,0.0746 3.59423,3.21629 9.375,2.6875 l 0,0.125 c 0.21518,-0.0179 0.56757,-0.12912 0.8125,-0.15625 0.13713,-0.021 0.23546,0.0254 0.375,0 l 0,-0.0312 c 1.74038,0.24609 3.48878,0.19031 5,-0.1875 0.31558,-0.0712 0.62839,-0.15458 0.9375,-0.25 0.1545,-0.0515 0.28526,-0.15954 0.4375,-0.21875 0.4993,-0.032 0.9722,0.0358 1.53125,-0.0312 1.43148,-0.17178 3.41159,-0.70861 5.40625,-1.9375 0.38653,0.30379 0.7752,0.66787 1.15625,0.90625 3.00289,1.87858 5.6042,2.41146 7.8125,2.6875 0.38369,0.0491 0.76966,0.0804 1.15625,0.0937 1.43299,0.0448 2.8908,-0.15238 4.34375,-0.46875 3.82365,0.63948 9.24851,1.0625 15.3125,1.0625 8.61829,0 16.00724,-0.81393 19.21875,-1.96875 0.0202,-0.007 0.0426,-0.024 0.0625,-0.0312 1.09593,-0.0778 2.16577,-0.23233 3.15625,-0.5625 1.59639,-0.52977 3.08373,-1.38579 4.34375,-2.5 -0.91739,0.81545 -0.48743,0.5756 0.875,-0.75 1.36243,-1.3256 4.03125,-5.09208 4.03125,-9.46875 -0.006,-1.04281 -0.1425,-2.08483 -0.40625,-3.09375 0.0766,-0.0518 0.2652,-0.10323 0.65625,-2.15625 0.25213,-1.32369 0.52596,-3.4432 -0.34375,-6.25 -0.30759,-0.99268 -0.82876,-1.96004 -1.46875,-2.875 0.0414,-0.27813 0.0625,-0.55347 0.0625,-0.84375 0,-3.03757 -2.35051,-5.5 -5.25,-5.5 -0.59077,0 -1.15755,0.0928 -1.6875,0.28125 -0.44056,-1.19683 -1.12618,-2.67198 -2.84375,-4.375 -0.81547,-0.80856 -1.89417,-1.45838 -3.03125,-2.03125 -0.33528,-0.19291 -0.67953,-0.37025 -1.03125,-0.53125 -0.0519,-0.0212 -0.10403,-0.042 -0.15625,-0.0625 -0.0212,-0.009 -0.0413,0.009 -0.0625,0 -1.69385,-0.65105 -3.05069,-1.00645 -4.65625,-1.03125 z m -127.625,0.0312 c -0.22968,0.0145 -0.45897,0.0353 -0.6875,0.0625 -0.1877,0.006 -0.37527,0.0167 -0.5625,0.0312 -2.00193,0.16857 -3.96067,0.8287 -5.65625,1.90625 -0.21272,0.13943 -0.42118,0.28535 -0.625,0.4375 -0.98658,0.58397 -1.99028,1.19061 -2.78125,1.90625 -0.1819,0.16145 -0.35908,0.32821 -0.53125,0.5 -1.08125,1.09788 -2.22112,2.53552 -3.3125,4.125 -0.96779,-0.68788 -2.03412,-1.23689 -3.15625,-1.625 l -0.0312,-0.0312 c -0.29838,-0.10517 -0.60075,-0.19901 -0.90625,-0.28125 -1.45692,-0.41697 -2.99005,-0.56602 -4.5,-0.4375 -4.58909,0.0511 -6.47069,2.19693 -7.75,3.21875 -1.5833,1.26462 -2.50946,2.35203 -3.375,3.4375 -1.62211,2.03429 -2.89304,3.27867 -4.0625,7.59375 l -0.0625,-0.0312 c 0.004,-0.0144 -0.0612,0.30739 -0.0625,0.3125 -0.0439,0.17054 -0.0814,0.19442 -0.125,0.375 l 0.0937,0.0312 c -0.20865,0.79891 -2.0555,7.87258 1.34375,13.90625 0.92472,1.64731 2.22846,3.08034 3.78125,4.15625 1.29715,0.89803 4.09295,2.10824 7.03125,2.46875 1.07026,0.31941 2.26191,0.53125 3.53125,0.53125 2.01004,0 3.8315,-0.47462 5.25,-1.21875 0.30205,-0.0732 0.61499,-0.12166 0.90625,-0.21875 1.05961,-0.35265 2.07159,-0.8481 3,-1.46875 0.2834,0.2106 0.56413,0.48132 0.84375,0.65625 3.00289,1.87858 5.6042,2.41146 7.8125,2.6875 0.0833,0.0106 0.16655,0.0223 0.25,0.0312 5.14759,0.99882 13.46044,1.65625 22.875,1.65625 13.00293,0 23.92841,-1.24999 27.25,-2.9375 0.0293,-0.0149 0.0656,-0.0163 0.0937,-0.0312 2.76396,-1.03654 4.27028,-2.65964 5,-3.34375 0.80936,-0.7661 1.51561,-1.641 2.09375,-2.59375 -0.18088,0.29392 -0.28011,0.48326 -0.3125,0.5625 0.10303,-0.10089 0.5726,-0.7781 1.21875,-2.03125 0.53401,-1.03566 1.32725,-2.67982 1.5,-5.28125 0.0199,-0.29954 -0.11634,-0.67772 -0.125,-1 1.0699,-2.89379 1.3438,-5.61798 1.3438,-7.2187 -0.005,-1.69296 -0.35791,-3.3842 -1.03125,-4.9375 0,0 -0.2564,-0.4663 -0.34375,-0.65625 -0.15326,-0.33326 -0.21266,-0.53447 -0.59375,-1.15625 -0.51495,-0.84018 -0.80043,-2.45053 -4.25,-4.34375 -0.49576,-0.36201 -1.7316,-1.2988 -4.5,-2.0625 -2.03586,-0.56162 -5.27404,-0.43464 -8.25,0.46875 -1.82061,-0.35671 -3.53773,-0.41951 -4.65625,-0.21875 -0.0691,0.0124 -0.089,0.0497 -0.15625,0.0625 -0.82113,-0.23918 -1.72523,-0.4167 -2.8125,-0.46875 -0.34313,-0.0246 -0.68727,-0.0351 -1.03125,-0.0312 -0.43479,0 -0.828,0.1367 -1.25,0.1875 -0.0875,0.01 -0.16127,-0.0116 -0.25,0 -0.0111,0.001 -0.0202,-10e-4 -0.0312,0 -0.12192,-0.22222 -0.27573,-0.38087 -0.40625,-0.59375 -0.0207,-0.0313 -0.0415,-0.0627 -0.0625,-0.0937 -0.45198,-0.77306 -0.98732,-1.49735 -1.59375,-2.15625 -0.22342,-0.25046 -0.42859,-0.46475 -0.65625,-0.6875 -0.23209,-0.20676 -0.4719,-0.40486 -0.71875,-0.59375 -0.0873,-0.0731 -0.16318,-0.15033 -0.25,-0.21875 -0.0415,-0.0315 -0.0831,-0.0627 -0.125,-0.0937 -0.36517,-0.27938 -0.7494,-0.6847 -1.09375,-0.875 -0.22248,-0.12295 -0.43634,-0.10935 -0.65625,-0.21875 -1.03284,-0.53565 -2.14079,-0.92598 -3.28125,-1.15625 -0.48451,-0.096 -1.00782,-0.1559 -1.5,-0.1875 -0.37381,-0.0377 -0.74931,-0.0586 -1.125,-0.0625 -0.41605,0 -0.91356,0.16388 -1.375,0.25 -0.56162,0.0766 -1.06402,-0.0231 -1.65625,0.125 -1.41996,0.33369 -2.78058,0.91834 -4,1.71875 -0.15814,-0.10072 -0.31326,-0.316 -0.46875,-0.40625 -1.50919,-0.87602 -2.87195,-1.36884 -4.1875,-1.71875 -1.37076,-0.48619 -2.82687,-0.73065 -4.28125,-0.71875 z m 143.15625,34.3125 c 0.0175,-0.0263 -0.11466,0.34655 -0.65625,1 0.0592,-0.13002 0.43619,-0.65442 0.4375,-0.65625 0.0748,-0.11338 0.14771,-0.22799 0.21875,-0.34375 z M 572,424.1562 c -0.0448,0.0448 -0.54902,0.59504 -1.625,1.3125 0.74861,-0.60996 1.67369,-1.36119 1.625,-1.3125 z"
       style="font-size:30px;font-style:italic;font-variant:normal;font-weight:bold;font-stretch:normal;text-indent:0;text-align:start;text-decoration:none;line-height:125%;letter-spacing:0px;word-spacing:0px;text-transform:none;direction:ltr;block-progression:tb;writing-mode:lr-tb;text-anchor:start;baseline-shift:baseline;color:#000000;fill:#575050;fill-opacity:1;fill-rule:nonzero;stroke:none;stroke-width:25;marker:none;visibility:visible;display:inline;overflow:visible;enable-background:accumulate;font-family:Miama;-inkscape-font-specification:Miama Bold Italic;filter:url(#filter3967)"
       inkscape:connector-curvature="0"
       inkscape:export-filename="/home/misto/repos/Write-Yourself-a-Scheme-in-Scala/layout/title.png"
       inkscape:export-xdpi="200"
       inkscape:export-ydpi="200" />
    <path
       style="font-size:30px;font-style:italic;font-variant:normal;font-weight:bold;font-stretch:normal;text-indent:0;text-align:start;text-decoration:none;line-height:125%;letter-spacing:0px;word-spacing:0px;text-transform:none;direction:ltr;block-progression:tb;writing-mode:lr-tb;text-anchor:start;baseline-shift:baseline;color:#000000;fill:#ffffff;fill-opacity:1;fill-rule:nonzero;stroke:none;stroke-width:25;marker:none;visibility:visible;display:inline;overflow:visible;enable-background:accumulate;font-family:Miama;-inkscape-font-specification:Miama Bold Italic"
       d="m 369.5,382.625 c -4.57565,0 -8.41017,1.99238 -9.3125,4.65625 -1.22823,0.34958 -2.40286,0.89035 -3.46875,1.59375 -4.00445,2.29298 -5.06815,5.28797 -5.21875,5.53125 l -0.0312,0.0312 c -0.009,-0.003 -0.022,0.003 -0.0312,0 -0.88281,-0.36432 -1.80751,-0.62702 -2.75,-0.78125 -0.13874,-0.0191 -0.36271,-0.0446 -0.5,-0.0625 -0.0105,-0.001 -0.0208,10e-4 -0.0312,0 -0.17661,-0.0246 -0.35375,-0.0455 -0.53125,-0.0625 -0.29804,-0.0201 -0.60754,-0.0326 -0.90625,-0.0312 -1.6942,-0.83888 -4.27685,-1.375 -7.21875,-1.375 -4.47005,0 -8.19997,1.22315 -9.0625,2.875 -0.28935,-0.14524 -0.59537,-0.26907 -0.90625,-0.40625 -0.15786,-0.26644 -0.23617,-0.67632 -0.40625,-0.90625 -0.36861,-0.49831 -0.65762,-0.69751 -1,-1.0625 -0.0572,-0.0609 -0.10003,-0.12989 -0.15625,-0.1875 -0.0414,-0.042 -0.083,-0.0836 -0.125,-0.125 -0.0302,-0.0301 -0.0639,-0.0646 -0.0937,-0.0937 -0.0311,-0.0314 -0.0623,-0.0627 -0.0937,-0.0937 -0.47398,-0.47777 -0.98661,-0.91717 -1.53125,-1.3125 -0.0122,-0.008 -0.0192,-0.0236 -0.0312,-0.0312 -0.24388,-0.17561 -0.4941,-0.34242 -0.75,-0.5 -1.96753,-1.21929 -4.27905,-1.87659 -6.59375,-1.875 1.51666,0 1.17257,-0.18033 -1.4375,0.0312 -0.5041,0.0409 -1.22712,0.4468 -1.84375,0.625 -1.48181,-0.69497 -2.26395,-0.75822 -2.15625,-0.6875 0.009,0.006 -0.1469,-0.0378 -0.125,-0.0312 -0.10375,-0.0326 -0.20793,-0.0639 -0.3125,-0.0937 -0.97603,-0.27722 -1.98592,-0.43502 -3,-0.46875 -3.51389,-0.25128 -6.75444,0.63541 -9,1.75 -2.8705,1.42477 -4.72692,3.08652 -6.25,4.65625 -0.009,0.009 -0.022,0.022 -0.0312,0.0312 -0.009,0.01 -0.0218,0.0215 -0.0312,0.0312 -2.59428,2.64874 -6.28143,6.94078 -6.65625,13.875 -0.006,0.2187 -0.006,0.43755 0,0.65625 0,4.72758 1.93429,8.22464 4.5625,10.78125 0.0248,1.96074 0.28641,3.84951 0.84375,5.25 0.79113,1.98797 1.63428,3.11598 2.3125,3.9375 0.0173,0.021 0.0455,0.0421 0.0625,0.0625 0.12986,0.15601 0.29691,0.40368 0.40625,0.53125 l 0.0312,-0.0312 c 5.77653,7.07474 13.48673,6.82722 19.375,4.5625 0.0628,-0.0307 0.12526,-0.062 0.1875,-0.0937 0.97332,-0.3929 1.84459,-0.83969 2.65625,-1.34375 2.63537,1.19457 6.3221,1.9375 10.40625,1.9375 5.68948,0 10.59427,-1.46564 12.96875,-3.5625 2.29529,1.3809 6.37254,2.3125 11.03125,2.3125 2.30736,0 4.46525,-0.22968 6.34375,-0.625 1.13009,0.69475 2.2512,1.14164 3.1875,1.40625 2.3133,0.65376 4.08508,0.61912 5.875,0.34375 0.20908,-0.026 0.4175,-0.0573 0.625,-0.0937 4.14771,-0.85815 7.2231,-3.77813 8.5,-5.5 1.02152,-1.3775 1.41458,-2.21604 1.46875,-2.375 0.0175,-0.0309 0.0294,-0.0356 0.0312,-0.0312 0.10119,-0.17292 0.18849,-0.35367 0.28125,-0.53125 1.74218,-3.48437 2.28607,-6.28231 2.625,-8.65625 0.63763,-1.43385 1.15625,-2.9997 1.15625,-4.8125 -8.4e-4,-0.88165 -0.0953,-1.76318 -0.28125,-2.625 -0.10885,-0.50798 -0.31365,-1.16012 -0.5625,-1.84375 0.43041,-1.30873 0.89328,-2.78953 1.375,-4 0.0319,-0.0726 0.0632,-0.14554 0.0937,-0.21875 0.68632,-1.83019 1.43154,-5.11506 0.0625,-8.90625 -0.83068,-2.30034 -2.33768,-3.99715 -3.90625,-5.3125 -0.20874,-0.18689 -0.43541,-0.35883 -0.65625,-0.53125 0.009,-0.10527 0.0312,-0.20583 0.0312,-0.3125 0,-3.24467 -4.25329,-5.875 -9.5,-5.875 z m -141.84375,3.65625 c -2.95911,0.0578 -5.61276,0.8919 -7.5,1.8125 -2.8758,1.40283 -4.66853,2.99792 -6.0625,4.28125 -0.30665,0.28713 -0.59881,0.58972 -0.875,0.90625 -1.16451,1.3164 -6.1387,5.65639 -5.875,13.84375 l -0.0625,0 c 0.003,0.13352 0.0257,0.24351 0.0312,0.375 9.2e-4,0.0217 -9.9e-4,0.0408 0,0.0625 0.33657,7.35804 4.81319,11.4248 9.65625,13.40625 0.33245,0.69076 0.59329,1.36008 1.125,2.125 3.95796,5.13287 15.45727,6.50327 23.125,6.25 2.83902,1.81835 7.4471,3.03125 12.65625,3.03125 5.27952,0 9.95269,-1.23353 12.78125,-3.09375 4.75677,-0.67629 7.10165,-3.19295 8.0625,-4.09375 0.80936,-0.7661 1.51561,-1.641 2.09375,-2.59375 -0.18088,0.29392 -0.28011,0.48326 -0.3125,0.5625 0.10303,-0.10089 0.5726,-0.7781 1.21875,-2.03125 0.53401,-1.03566 1.296,-2.67982 1.46875,-5.28125 0.0199,-0.29954 -0.11634,-0.67772 -0.125,-1 1.06985,-2.89384 1.34375,-5.61803 1.34375,-7.21875 -0.005,-1.69296 -0.35791,-3.3842 -1.03125,-4.9375 0,0 -0.2564,-0.4663 -0.34375,-0.65625 -0.17767,-0.3954 -0.37598,-0.78144 -0.59375,-1.15625 -0.51316,-0.83727 -0.80435,-2.42809 -4.21875,-4.3125 -0.47934,-0.34904 -1.72674,-1.32009 -4.53125,-2.09375 -0.10488,-0.0289 -0.26391,-0.006 -0.375,-0.0312 -0.67127,-0.72749 -1.32127,-1.5253 -2.09375,-2.03125 -2.31768,-1.51801 -4.43507,-1.90603 -5.84375,-2.03125 -2.53212,-0.22508 -3.35772,0.0631 -3.78125,0.1875 -1.27016,0.20455 -2.5083,0.60668 -3.65625,1.1875 -2.18132,-2.44221 -6.16136,-5.21875 -10,-5.21875 -1.64704,0.002 -3.29309,0.33304 -4.8125,0.96875 -0.43844,0.18268 -1.05015,0.67863 -1.59375,1 -0.26946,-0.0313 -0.59303,-0.1875 -0.84375,-0.1875 -0.27634,0 -0.58868,0.10285 -0.875,0.125 -0.13381,-0.0859 -0.26926,-0.16926 -0.40625,-0.25 -0.0415,-0.0315 -0.0831,-0.0627 -0.125,-0.0937 -0.14183,-0.0761 -0.1497,-0.0594 -0.28125,-0.125 -0.54299,-0.29113 -1.10754,-0.54204 -1.6875,-0.75 -0.2675,-0.10303 -0.53855,-0.19685 -0.8125,-0.28125 -0.0102,-0.003 -0.0212,0.003 -0.0312,0 -0.98343,-0.30087 -2.00412,-0.47975 -3.03125,-0.53125 -0.16405,-0.0145 -0.33721,-0.0843 -0.5,-0.0937 -0.43407,-0.0251 -0.85852,-0.0395 -1.28125,-0.0312 z m 328.375,0.46875 c -0.53519,-0.008 -1.11095,0.0309 -1.71875,0.0937 -0.25087,0.0237 -0.50102,0.055 -0.75,0.0937 -0.23027,0.0352 -0.45956,0.0769 -0.6875,0.125 -1.56655,0.31514 -3.07138,0.93415 -4.40625,1.8125 -0.0209,0.0103 -0.0417,0.0208 -0.0625,0.0312 -1.66487,0.96676 -2.68768,1.9009 -3.375,2.71875 -0.86935,-0.69106 -2.00335,-1.125 -3.28125,-1.125 -0.90458,0 -1.7427,0.19374 -2.46875,0.5625 -0.81549,-0.74939 -1.666,-1.37779 -2.46875,-1.84375 -1.5332,-0.88996 -2.91635,-1.36949 -4.25,-1.71875 -1.57011,-0.54178 -3.24895,-0.76633 -4.90625,-0.65625 -0.1877,0.006 -0.37527,0.0167 -0.5625,0.0312 -2.01254,0.16362 -3.98285,0.824 -5.6875,1.90625 -0.0946,0.0612 -0.18835,0.12374 -0.28125,0.1875 -1.12135,0.63205 -2.20359,1.35087 -3.09375,2.15625 -0.1819,0.16145 -0.35908,0.32821 -0.53125,0.5 -1.19455,1.21293 -2.47357,2.81117 -3.65625,4.625 -0.62838,-0.35828 -1.28793,-0.66188 -1.96875,-0.90625 -0.14158,-0.0515 -0.26578,-0.0165 -0.40625,-0.0625 -1.57262,-0.93483 -3.36728,-1.50724 -5.1875,-1.6875 -1.32979,-0.68211 -2.94876,-1.09375 -4.71875,-1.09375 -1.19627,0 -2.32283,0.17027 -3.34375,0.5 -0.83829,0.18496 -1.73976,0.48214 -2.71875,0.96875 -0.98268,0.43101 -1.90949,0.9892 -2.75,1.65625 -0.17012,0.13109 -0.33686,0.26657 -0.5,0.40625 -1.5449,1.29793 -2.76816,2.97586 -3.53125,4.84375 -0.39741,0.92987 -0.68143,1.90813 -0.84375,2.90625 -0.0257,0.14086 -0.1418,0.49257 -0.15625,0.59375 -0.037,0.21787 -0.0684,0.43672 -0.0937,0.65625 -9.6e-4,0.0106 9.3e-4,0.0208 0,0.0312 -0.29053,0.76875 -0.62085,1.57893 -1.125,3.125 -0.0213,0.0623 -0.0422,0.12484 -0.0625,0.1875 -0.81449,2.6471 -2.34598,8.22719 1.1875,14.21875 0.84175,1.40797 1.96383,2.64759 3.28125,3.625 0.0995,0.0746 3.59423,3.21629 9.375,2.6875 l 0,0.125 c 0.21518,-0.0179 0.56757,-0.12912 0.8125,-0.15625 0.13713,-0.021 0.23546,0.0254 0.375,0 l 0,-0.0312 c 1.74038,0.24609 3.48878,0.19031 5,-0.1875 0.31558,-0.0712 0.62839,-0.15458 0.9375,-0.25 0.1545,-0.0515 0.28526,-0.15954 0.4375,-0.21875 0.4993,-0.032 0.9722,0.0358 1.53125,-0.0312 1.43148,-0.17178 3.41159,-0.70861 5.40625,-1.9375 0.38653,0.30379 0.7752,0.66787 1.15625,0.90625 3.00289,1.87858 5.6042,2.41146 7.8125,2.6875 0.38369,0.0491 0.76966,0.0804 1.15625,0.0937 1.43299,0.0448 2.8908,-0.15238 4.34375,-0.46875 3.82365,0.63948 9.24851,1.0625 15.3125,1.0625 8.61829,0 16.00724,-0.81393 19.21875,-1.96875 0.0202,-0.007 0.0426,-0.024 0.0625,-0.0312 1.09593,-0.0778 2.16577,-0.23233 3.15625,-0.5625 1.59639,-0.52977 3.08373,-1.38579 4.34375,-2.5 -0.91739,0.81545 -0.48743,0.5756 0.875,-0.75 1.36243,-1.3256 4.03125,-5.09208 4.03125,-9.46875 -0.006,-1.04281 -0.1425,-2.08483 -0.40625,-3.09375 0.0766,-0.0518 0.2652,-0.10323 0.65625,-2.15625 0.25213,-1.32369 0.52596,-3.4432 -0.34375,-6.25 -0.30759,-0.99268 -0.82876,-1.96004 -1.46875,-2.875 0.0414,-0.27813 0.0625,-0.55347 0.0625,-0.84375 0,-3.03757 -2.35051,-5.5 -5.25,-5.5 -0.59077,0 -1.15755,0.0928 -1.6875,0.28125 -0.44056,-1.19683 -1.12618,-2.67198 -2.84375,-4.375 -0.81547,-0.80856 -1.89417,-1.45838 -3.03125,-2.03125 -0.33528,-0.19291 -0.67953,-0.37025 -1.03125,-0.53125 -0.0519,-0.0212 -0.10403,-0.042 -0.15625,-0.0625 -0.0212,-0.009 -0.0413,0.009 -0.0625,0 -1.69385,-0.65105 -3.05069,-1.00645 -4.65625,-1.03125 z m -127.625,0.0312 c -0.22968,0.0145 -0.45897,0.0353 -0.6875,0.0625 -0.1877,0.006 -0.37527,0.0167 -0.5625,0.0312 -2.00193,0.16857 -3.96067,0.8287 -5.65625,1.90625 -0.21272,0.13943 -0.42118,0.28535 -0.625,0.4375 -0.98658,0.58397 -1.99028,1.19061 -2.78125,1.90625 -0.1819,0.16145 -0.35908,0.32821 -0.53125,0.5 -1.08125,1.09788 -2.22112,2.53552 -3.3125,4.125 -0.96779,-0.68788 -2.03412,-1.23689 -3.15625,-1.625 l -0.0312,-0.0312 c -0.29838,-0.10517 -0.60075,-0.19901 -0.90625,-0.28125 -1.45692,-0.41697 -2.99005,-0.56602 -4.5,-0.4375 -4.58909,0.0511 -6.47069,2.19693 -7.75,3.21875 -1.5833,1.26462 -2.50946,2.35203 -3.375,3.4375 -1.62211,2.03429 -2.89304,3.27867 -4.0625,7.59375 l -0.0625,-0.0312 c 0.004,-0.0144 -0.0612,0.30739 -0.0625,0.3125 -0.0439,0.17054 -0.0814,0.19442 -0.125,0.375 l 0.0937,0.0312 c -0.20865,0.79891 -2.0555,7.87258 1.34375,13.90625 0.92472,1.64731 2.22846,3.08034 3.78125,4.15625 1.29715,0.89803 4.09295,2.10824 7.03125,2.46875 1.07026,0.31941 2.26191,0.53125 3.53125,0.53125 2.01004,0 3.8315,-0.47462 5.25,-1.21875 0.30205,-0.0732 0.61499,-0.12166 0.90625,-0.21875 1.05961,-0.35265 2.07159,-0.8481 3,-1.46875 0.2834,0.2106 0.56413,0.48132 0.84375,0.65625 3.00289,1.87858 5.6042,2.41146 7.8125,2.6875 0.0833,0.0106 0.16655,0.0223 0.25,0.0312 5.14759,0.99882 13.46044,1.65625 22.875,1.65625 13.00293,0 23.92841,-1.24999 27.25,-2.9375 0.0293,-0.0149 0.0656,-0.0163 0.0937,-0.0312 2.76396,-1.03654 4.27028,-2.65964 5,-3.34375 0.80936,-0.7661 1.51561,-1.641 2.09375,-2.59375 -0.18088,0.29392 -0.28011,0.48326 -0.3125,0.5625 0.10303,-0.10089 0.5726,-0.7781 1.21875,-2.03125 0.53401,-1.03566 1.32725,-2.67982 1.5,-5.28125 0.0199,-0.29954 -0.11634,-0.67772 -0.125,-1 1.0699,-2.89379 1.3438,-5.61798 1.3438,-7.2187 -0.005,-1.69296 -0.35791,-3.3842 -1.03125,-4.9375 0,0 -0.2564,-0.4663 -0.34375,-0.65625 -0.15326,-0.33326 -0.21266,-0.53447 -0.59375,-1.15625 -0.51495,-0.84018 -0.80043,-2.45053 -4.25,-4.34375 -0.49576,-0.36201 -1.7316,-1.2988 -4.5,-2.0625 -2.03586,-0.56162 -5.27404,-0.43464 -8.25,0.46875 -1.82061,-0.35671 -3.53773,-0.41951 -4.65625,-0.21875 -0.0691,0.0124 -0.089,0.0497 -0.15625,0.0625 -0.82113,-0.23918 -1.72523,-0.4167 -2.8125,-0.46875 -0.34313,-0.0246 -0.68727,-0.0351 -1.03125,-0.0312 -0.43479,0 -0.828,0.1367 -1.25,0.1875 -0.0875,0.01 -0.16127,-0.0116 -0.25,0 -0.0111,0.001 -0.0202,-10e-4 -0.0312,0 -0.12192,-0.22222 -0.27573,-0.38087 -0.40625,-0.59375 -0.0207,-0.0313 -0.0415,-0.0627 -0.0625,-0.0937 -0.45198,-0.77306 -0.98732,-1.49735 -1.59375,-2.15625 -0.22342,-0.25046 -0.42859,-0.46475 -0.65625,-0.6875 -0.23209,-0.20676 -0.4719,-0.40486 -0.71875,-0.59375 -0.0873,-0.0731 -0.16318,-0.15033 -0.25,-0.21875 -0.0415,-0.0315 -0.0831,-0.0627 -0.125,-0.0937 -0.36517,-0.27938 -0.7494,-0.6847 -1.09375,-0.875 -0.22248,-0.12295 -0.43634,-0.10935 -0.65625,-0.21875 -1.03284,-0.53565 -2.14079,-0.92598 -3.28125,-1.15625 -0.48451,-0.096 -1.00782,-0.1559 -1.5,-0.1875 -0.37381,-0.0377 -0.74931,-0.0586 -1.125,-0.0625 -0.41605,0 -0.91356,0.16388 -1.375,0.25 -0.56162,0.0766 -1.06402,-0.0231 -1.65625,0.125 -1.41996,0.33369 -2.78058,0.91834 -4,1.71875 -0.15814,-0.10072 -0.31326,-0.316 -0.46875,-0.40625 -1.50919,-0.87602 -2.87195,-1.36884 -4.1875,-1.71875 -1.37076,-0.48619 -2.82687,-0.73065 -4.28125,-0.71875 z m 143.15625,34.3125 c 0.0175,-0.0263 -0.11466,0.34655 -0.65625,1 0.0592,-0.13002 0.43619,-0.65442 0.4375,-0.65625 0.0748,-0.11338 0.14771,-0.22799 0.21875,-0.34375 z M 572,424.1562 c -0.0448,0.0448 -0.54902,0.59504 -1.625,1.3125 0.74861,-0.60996 1.67369,-1.36119 1.625,-1.3125 z"
       id="text3922"
       inkscape:connector-curvature="0"
       inkscape:export-filename="/home/misto/repos/Write-Yourself-a-Scheme-in-Scala/layout/title.png"
       inkscape:export-xdpi="200"
       inkscape:export-ydpi="200" />
    <text
       sodipodi:linespacing="125%"
       id="text3918"
       y="416.59375"
       x="216.60229"
       style="font-size:30px;font-style:italic;font-variant:normal;font-weight:bold;font-stretch:normal;line-height:125%;letter-spacing:0px;word-spacing:0px;fill:#000000;fill-opacity:1;stroke:none;font-family:Miama;-inkscape-font-specification:Miama Bold Italic"
       xml:space="preserve"
       inkscape:export-filename="/home/misto/repos/Write-Yourself-a-Scheme-in-Scala/layout/title.png"
       inkscape:export-xdpi="200"
       inkscape:export-ydpi="200"><tspan
         dx="0 0 0 0 0 0 0 0 0 0 0 0 0 0 0 0 0 0 9.6428566 0 0 0 0 0 0 0 0 0"
         dy="0 0 0 0 0 0 0 0 0 0 0 0 0 0 0 0 0 0 0"
         style="font-size:30px;font-style:italic;font-variant:normal;font-weight:bold;font-stretch:normal;font-family:Muriel;-inkscape-font-specification:Muriel Bold Italic;fill:#000000;fill-opacity:1"
         y="416.59375"
         x="216.60229"
         id="tspan3920"
         sodipodi:role="line">Write   Yourself  a Scheme  in Scala</tspan></text>
    <g
       id="g4043"
       inkscape:export-filename="/home/misto/repos/Write-Yourself-a-Scheme-in-Scala/layout/title.png"
       inkscape:export-xdpi="200"
       inkscape:export-ydpi="200">
      <path
         d="m 252.43712,186.86348 c 0,7.41996 -8.94346,13.43503 -19.97577,13.43503 -11.03231,0 -19.97577,-6.01507 -19.97577,-13.43503 0,-7.41996 8.94346,-13.43503 19.97577,-13.43503 11.03231,0 19.97577,6.01507 19.97577,13.43503 z"
         sodipodi:ry="13.435029"
         sodipodi:rx="19.975767"
         sodipodi:cy="186.86348"
         sodipodi:cx="232.46135"
         id="path3991"
         style="fill:#ffffff;fill-opacity:1;fill-rule:nonzero;stroke:none"
         sodipodi:type="arc" />
      <path
         d="m 274.00388,193.58099 c 0,5.66261 -9.33919,10.25305 -20.85965,10.25305 -11.52047,0 -20.85965,-4.59044 -20.85965,-10.25305 0,-5.6626 9.33918,-10.25304 20.85965,-10.25304 11.52046,0 20.85965,4.59044 20.85965,10.25304 z"
         sodipodi:ry="10.253048"
         sodipodi:rx="20.85965"
         sodipodi:cy="193.58099"
         sodipodi:cx="253.14423"
         id="path3993"
         style="fill:#ffffff;fill-opacity:1;fill-rule:nonzero;stroke:none"
         sodipodi:type="arc" />
      <path
         d="m 274.71097,184.56538 c 0,5.36971 -8.07285,9.72272 -18.03122,9.72272 -9.95837,0 -18.03122,-4.35301 -18.03122,-9.72272 0,-5.36971 8.07285,-9.72271 18.03122,-9.72271 9.95837,0 18.03122,4.353 18.03122,9.72271 z"
         sodipodi:ry="9.7227182"
         sodipodi:rx="18.031223"
         sodipodi:cy="184.56538"
         sodipodi:cx="256.67975"
         id="path3995"
         style="fill:#ffffff;fill-opacity:1;fill-rule:nonzero;stroke:none"
         sodipodi:type="arc" />
      <path
         sodipodi:type="arc"
         style="fill:#ffffff;fill-opacity:1;fill-rule:nonzero;stroke:none"
         id="path3997"
         sodipodi:cx="301.60715"
         sodipodi:cy="310.57648"
         sodipodi:rx="20.892857"
         sodipodi:ry="11.071428"
         d="m 322.5,310.57648 c 0,6.11458 -9.35405,11.07143 -20.89285,11.07143 -11.53881,0 -20.89286,-4.95685 -20.89286,-11.07143 0,-6.11458 9.35405,-11.07143 20.89286,-11.07143 11.5388,0 20.89285,4.95685 20.89285,11.07143 z"
         transform="translate(2.9393398,-114)" />
      <path
         sodipodi:type="arc"
         style="fill:#ffffff;fill-opacity:1;fill-rule:nonzero;stroke:none"
         id="path3999"
         sodipodi:cx="288.57144"
         sodipodi:cy="265.57648"
         sodipodi:rx="18.571428"
         sodipodi:ry="11.785714"
         d="m 307.14287,265.57648 c 0,6.50907 -8.31471,11.78571 -18.57143,11.78571 -10.25671,0 -18.57143,-5.27664 -18.57143,-11.78571 0,-6.50907 8.31472,-11.78572 18.57143,-11.78572 10.25672,0 18.57143,5.27665 18.57143,11.78572 z"
         transform="translate(6.9393398,-80)" />
      <path
         sodipodi:type="arc"
         style="fill:#ffffff;fill-opacity:1;fill-rule:nonzero;stroke:none"
         id="path4001"
         sodipodi:cx="323.75"
         sodipodi:cy="277.00504"
         sodipodi:rx="14.821428"
         sodipodi:ry="11.071428"
         d="m 338.57143,277.00504 c 0,6.11458 -6.63578,11.07142 -14.82143,11.07142 -8.18565,0 -14.82143,-4.95684 -14.82143,-11.07142 0,-6.11459 6.63578,-11.07143 14.82143,-11.07143 8.18565,0 14.82143,4.95684 14.82143,11.07143 z"
         transform="translate(6.9393398,-82)" />
      <path
         sodipodi:type="arc"
         style="fill:#ffffff;fill-opacity:1;fill-rule:nonzero;stroke:none"
         id="path4003"
         sodipodi:cx="314.64285"
         sodipodi:cy="263.25504"
         sodipodi:rx="19.285715"
         sodipodi:ry="11.607142"
         d="m 333.92857,263.25504 c 0,6.41044 -8.63451,11.60714 -19.28572,11.60714 -10.6512,0 -19.28571,-5.1967 -19.28571,-11.60714 0,-6.41045 8.63451,-11.60715 19.28571,-11.60715 10.65121,0 19.28572,5.1967 19.28572,11.60715 z"
         transform="matrix(1,0,0,0.71824513,6.9393398,-2.5562439)" />
      <path
         sodipodi:type="arc"
         style="fill:#ffffff;fill-opacity:1;fill-rule:nonzero;stroke:none"
         id="path4005"
         sodipodi:cx="339.46429"
         sodipodi:cy="268.07648"
         sodipodi:rx="15.892858"
         sodipodi:ry="12.857142"
         d="m 355.35715,268.07648 c 0,7.1008 -7.11547,12.85714 -15.89286,12.85714 -8.77738,0 -15.89285,-5.75634 -15.89285,-12.85714 0,-7.10081 7.11547,-12.85715 15.89285,-12.85715 8.77739,0 15.89286,5.75634 15.89286,12.85715 z"
         transform="translate(8.9393398,-82)" />
      <path
         sodipodi:type="arc"
         style="fill:#ffffff;fill-opacity:1;fill-rule:nonzero;stroke:none"
         id="path4007"
         sodipodi:cx="342.14285"
         sodipodi:cy="277.18362"
         sodipodi:rx="9.6428576"
         sodipodi:ry="11.25"
         d="m 351.78571,277.18362 c 0,6.21321 -4.31725,11.25 -9.64286,11.25 -5.3256,0 -9.64285,-5.03679 -9.64285,-11.25 0,-6.2132 4.31725,-11.25 9.64285,-11.25 5.32561,0 9.64286,5.0368 9.64286,11.25 z"
         transform="translate(6.9393398,-80)" />
      <path
         transform="translate(2,0)"
         d="m 400.5,193.36218 c 0,5.79899 -6.82766,10.5 -15.25,10.5 -8.42234,0 -15.25,-4.70101 -15.25,-10.5 0,-5.79899 6.82766,-10.5 15.25,-10.5 8.42234,0 15.25,4.70101 15.25,10.5 z"
         sodipodi:ry="10.5"
         sodipodi:rx="15.25"
         sodipodi:cy="193.36218"
         sodipodi:cx="385.25"
         id="path4009"
         style="fill:#ffffff;fill-opacity:1;fill-rule:nonzero;stroke:none"
         sodipodi:type="arc" />
      <path
         d="m 432.5,185.61218 c 0,5.66092 -9.96166,10.25 -22.25,10.25 -12.28834,0 -22.25,-4.58908 -22.25,-10.25 0,-5.66092 9.96166,-10.25 22.25,-10.25 12.28834,0 22.25,4.58908 22.25,10.25 z"
         sodipodi:ry="10.25"
         sodipodi:rx="22.25"
         sodipodi:cy="185.61218"
         sodipodi:cx="410.25"
         id="path4011"
         style="fill:#ffffff;fill-opacity:1;fill-rule:nonzero;stroke:none"
         sodipodi:type="arc" />
      <path
         transform="matrix(1.0950732,0,0,1.4384062,-38.878004,-86.497633)"
         d="m 451,195.61218 c 0,3.45178 -13.31953,6.25 -29.75,6.25 -16.43047,0 -29.75,-2.79822 -29.75,-6.25 0,-3.45178 13.31953,-6.25 29.75,-6.25 16.43047,0 29.75,2.79822 29.75,6.25 z"
         sodipodi:ry="6.25"
         sodipodi:rx="29.75"
         sodipodi:cy="195.61218"
         sodipodi:cx="421.25"
         id="path4013"
         style="fill:#ffffff;fill-opacity:1;fill-rule:nonzero;stroke:none"
         sodipodi:type="arc" />
      <path
         transform="matrix(0.84219353,-0.15239066,0.10960224,1.3131459,51.636731,8.861581)"
         d="m 451,187.61218 c 0,4.28021 -6.49187,7.75 -14.5,7.75 -8.00813,0 -14.5,-3.46979 -14.5,-7.75 0,-4.2802 6.49187,-7.75 14.5,-7.75 8.00813,0 14.5,3.4698 14.5,7.75 z"
         sodipodi:ry="7.75"
         sodipodi:rx="14.5"
         sodipodi:cy="187.61218"
         sodipodi:cx="436.5"
         id="path4015"
         style="fill:#ffffff;fill-opacity:1;fill-rule:nonzero;stroke:none"
         sodipodi:type="arc" />
      <path
         transform="matrix(1,0,0,1.3013898,0,-57.460155)"
         d="m 476.75,191.23718 c 0,4.21117 -4.30926,7.625 -9.625,7.625 -5.31574,0 -9.625,-3.41383 -9.625,-7.625 0,-4.21117 4.30926,-7.625 9.625,-7.625 5.31574,0 9.625,3.41383 9.625,7.625 z"
         sodipodi:ry="7.625"
         sodipodi:rx="9.625"
         sodipodi:cy="191.23718"
         sodipodi:cx="467.125"
         id="path4023"
         style="fill:#ffffff;fill-opacity:1;fill-rule:nonzero;stroke:none"
         sodipodi:type="arc" />
      <path
         sodipodi:type="arc"
         style="fill:#ffffff;fill-opacity:1;fill-rule:nonzero;stroke:none"
         id="path4041"
         sodipodi:cx="493"
         sodipodi:cy="189.86218"
         sodipodi:rx="11"
         sodipodi:ry="13.75"
         d="m 504,189.86218 c 0,7.59392 -4.92487,13.75 -11,13.75 -6.07513,0 -11,-6.15608 -11,-13.75 0,-7.59391 4.92487,-13.75 11,-13.75 6.07513,0 11,6.15609 11,13.75 z"
         transform="matrix(1.5,0,0,0.74545455,-258,50.828556)" />
      <path
         transform="translate(-6,-2)"
         d="m 517.25,193.23718 c 0,5.72996 -4.64505,10.375 -10.375,10.375 -5.72995,0 -10.375,-4.64504 -10.375,-10.375 0,-5.72995 4.64505,-10.375 10.375,-10.375 5.72995,0 10.375,4.64505 10.375,10.375 z"
         sodipodi:ry="10.375"
         sodipodi:rx="10.375"
         sodipodi:cy="193.23718"
         sodipodi:cx="506.875"
         id="path4037"
         style="fill:#ffffff;fill-opacity:1;fill-rule:nonzero;stroke:none"
         sodipodi:type="arc" />
      <path
         transform="matrix(1.5,0,0,0.92727273,-258,7.8081591)"
         d="m 504,189.86218 c 0,7.59392 -4.92487,13.75 -11,13.75 -6.07513,0 -11,-6.15608 -11,-13.75 0,-7.59391 4.92487,-13.75 11,-13.75 6.07513,0 11,6.15609 11,13.75 z"
         sodipodi:ry="13.75"
         sodipodi:rx="11"
         sodipodi:cy="189.86218"
         sodipodi:cx="493"
         id="path4025"
         style="fill:#ffffff;fill-opacity:1;fill-rule:nonzero;stroke:none"
         sodipodi:type="arc" />
      <path
         transform="matrix(2.0191713,0,0,0.70209853,-543.69579,52.538553)"
         d="m 525.5,189.86218 c 0,7.45585 -3.13401,13.5 -7,13.5 -3.86599,0 -7,-6.04415 -7,-13.5 0,-7.45584 3.13401,-13.5 7,-13.5 3.86599,0 7,6.04416 7,13.5 z"
         sodipodi:ry="13.5"
         sodipodi:rx="7"
         sodipodi:cy="189.86218"
         sodipodi:cx="518.5"
         id="path4027"
         style="fill:#ffffff;fill-opacity:1;fill-rule:nonzero;stroke:none"
         sodipodi:type="arc" />
      <path
         transform="matrix(2.445022,0.3573873,-0.37648212,1.9502955,-698.77045,-372.6448)"
         d="m 531.56754,191.2829 c 0,4.49103 -2.17651,8.13173 -4.86136,8.13173 -2.68486,0 -4.86136,-3.6407 -4.86136,-8.13173 0,-4.49103 2.1765,-8.13173 4.86136,-8.13173 2.68485,0 4.86136,3.6407 4.86136,8.13173 z"
         sodipodi:ry="8.1317282"
         sodipodi:rx="4.8613591"
         sodipodi:cy="191.2829"
         sodipodi:cx="526.70618"
         id="path4039"
         style="fill:#ffffff;fill-opacity:1;fill-rule:nonzero;stroke:none"
         sodipodi:type="arc" />
    </g>
    <text
       sodipodi:linespacing="125%"
       id="text3987"
       y="196.59375"
       x="216.60229"
       style="font-size:30px;font-style:italic;font-variant:normal;font-weight:bold;font-stretch:normal;line-height:125%;letter-spacing:0px;word-spacing:0px;fill:#000000;fill-opacity:1;stroke:none;font-family:Miama;-inkscape-font-specification:Miama Bold Italic"
       xml:space="preserve"
       inkscape:export-xdpi="200"
       inkscape:export-ydpi="200"
       inkscape:export-filename="/home/misto/repos/Write-Yourself-a-Scheme-in-Scala/layout/title.png"><tspan
         dx="0 0 0 0 0 5.3032999 0 0 0 0 0 0 0 0 0 9.6428566 0 0 0 0 0 0 0 0 4.24264 0 0 -5.5"
         dy="0 0 0 0 0 0 0 0 0 0 0 0 0 0 0 0"
         style="font-size:30px;font-style:italic;font-variant:normal;font-weight:bold;font-stretch:normal;font-family:Muriel;-inkscape-font-specification:Muriel Bold Italic"
         y="196.59375"
         x="216.60229"
         id="tspan3989"
         sodipodi:role="line">Write Yourself a Scheme in Scala</tspan></text>
  </g>
</svg>
